<svg width="1200" height="630" viewBox="0 0 1200 630" xmlns="http://www.w3.org/2000/svg">
  <rect width="1200" height="630" fill="#FAF7F2"/>
  <g transform="translate(250 266) scale(0.6993)">
    <path d="M918.395 137.479V1.8528H942.101L983.877 109.304H984.265L983.877 1.8528H1000.78V137.479H977.465L935.494 30.6101H935.106L935.3 137.479H918.395Z" fill="#3F210A"/>
    <path d="M846.722 137.479V1.8528H898.019V19.146H865.181V60.5333H895.299V77.2436H865.181V120.185H898.991V137.479H846.722Z" fill="#3F210A"/>
    <path d="M794.823 139.033C787.245 139.033 779.278 137.479 772.089 134.175V113.773C780.25 119.602 787.439 122.128 793.851 122.128C803.567 122.128 811.144 116.493 811.144 104.835C811.144 96.8685 807.647 90.2621 801.235 82.4899L784.719 61.3105C777.141 51.9838 772.672 43.0457 772.672 31.3873C772.672 11.3738 785.885 0.29834 805.121 0.29834C810.95 0.29834 816.779 1.26987 822.609 3.01863V20.5062C817.168 17.9802 811.144 16.2315 805.898 16.2315C796.572 16.2315 790.548 21.4777 790.548 30.9987C790.548 37.0222 792.88 42.0742 798.126 48.4863L814.253 68.6941C823.774 80.9354 829.798 90.6507 829.798 105.029C829.798 126.792 815.419 139.033 794.823 139.033Z" fill="#3F210A"/>
    <path d="M671.877 137.479V1.8528H695.582L737.358 109.304H737.747L737.358 1.8528H754.263V137.479H730.946L688.976 30.6101H688.587L688.782 137.479H671.877Z" fill="#3F210A"/>
    <path d="M571.184 137.479L601.301 1.8528H626.561L656.873 137.479H637.831L632.585 112.219H594.889L589.449 137.479H571.184ZM613.737 22.4493L597.998 97.0628H629.476L614.126 22.4493H613.737Z" fill="#3F210A"/>
    <path d="M483.749 137.479V1.8528H502.208V59.3674H537.572V1.8528H556.031V137.479H537.572V76.6607H502.208V137.479H483.749Z" fill="#3F210A"/>
    <path d="M341.16 137.479V90.845L312.209 1.8528H331.834L350.293 68.4998H350.681L370.112 1.8528H388.571L359.425 90.845V137.479H341.16Z" fill="#3F210A"/>
    <path d="M206.544 137.479V1.8528H242.879C283.295 1.8528 309.526 28.4727 309.526 69.6657C309.526 110.664 283.489 137.479 242.879 137.479H206.544ZM225.003 120.38H242.296C272.414 120.38 290.096 99.7831 290.096 69.6657C290.096 39.5482 272.414 18.9517 242.296 18.9517H225.003V120.38Z" fill="#3F210A"/>
    <path d="M101.474 137.479V1.8528H125.18L166.956 109.304H167.344L166.956 1.8528H183.86V137.479H160.544L118.573 30.6101H118.185L118.379 137.479H101.474Z" fill="#3F210A"/>
    <path d="M0.781281 137.479L30.8987 1.8528H56.1586L86.4703 137.479H67.4283L62.182 112.219H24.4866L19.0461 137.479H0.781281ZM43.3343 22.4493L27.5955 97.0628H59.0731L43.723 22.4493H43.3343Z" fill="#3F210A"/>
  </g>
</svg>
